<svg id="visual" viewBox="0 0 900 600" width="900" height="600" xmlns="http://www.w3.org/2000/svg" xmlns:xlink="http://www.w3.org/1999/xlink" version="1.1"><rect x="0" y="0" width="900" height="600" fill="#001220"></rect><defs><linearGradient id="grad1_0" x1="33.3%" y1="0%" x2="100%" y2="100%"><stop offset="20%" stop-color="#ff0066" stop-opacity="1"></stop><stop offset="80%" stop-color="#ff0066" stop-opacity="1"></stop></linearGradient></defs><defs><linearGradient id="grad1_1" x1="33.3%" y1="0%" x2="100%" y2="100%"><stop offset="20%" stop-color="#ff0066" stop-opacity="1"></stop><stop offset="80%" stop-color="#d0127b" stop-opacity="1"></stop></linearGradient></defs><defs><linearGradient id="grad1_2" x1="33.3%" y1="0%" x2="100%" y2="100%"><stop offset="20%" stop-color="#9a2881" stop-opacity="1"></stop><stop offset="80%" stop-color="#d0127b" stop-opacity="1"></stop></linearGradient></defs><defs><linearGradient id="grad1_3" x1="33.3%" y1="0%" x2="100%" y2="100%"><stop offset="20%" stop-color="#9a2881" stop-opacity="1"></stop><stop offset="80%" stop-color="#623078" stop-opacity="1"></stop></linearGradient></defs><defs><linearGradient id="grad1_4" x1="33.3%" y1="0%" x2="100%" y2="100%"><stop offset="20%" stop-color="#312c62" stop-opacity="1"></stop><stop offset="80%" stop-color="#623078" stop-opacity="1"></stop></linearGradient></defs><defs><linearGradient id="grad1_5" x1="33.3%" y1="0%" x2="100%" y2="100%"><stop offset="20%" stop-color="#312c62" stop-opacity="1"></stop><stop offset="80%" stop-color="#0a2142" stop-opacity="1"></stop></linearGradient></defs><defs><linearGradient id="grad1_6" x1="33.3%" y1="0%" x2="100%" y2="100%"><stop offset="20%" stop-color="#001220" stop-opacity="1"></stop><stop offset="80%" stop-color="#0a2142" stop-opacity="1"></stop></linearGradient></defs><defs><linearGradient id="grad2_0" x1="0%" y1="0%" x2="66.7%" y2="100%"><stop offset="20%" stop-color="#ff0066" stop-opacity="1"></stop><stop offset="80%" stop-color="#ff0066" stop-opacity="1"></stop></linearGradient></defs><defs><linearGradient id="grad2_1" x1="0%" y1="0%" x2="66.7%" y2="100%"><stop offset="20%" stop-color="#d0127b" stop-opacity="1"></stop><stop offset="80%" stop-color="#ff0066" stop-opacity="1"></stop></linearGradient></defs><defs><linearGradient id="grad2_2" x1="0%" y1="0%" x2="66.7%" y2="100%"><stop offset="20%" stop-color="#d0127b" stop-opacity="1"></stop><stop offset="80%" stop-color="#9a2881" stop-opacity="1"></stop></linearGradient></defs><defs><linearGradient id="grad2_3" x1="0%" y1="0%" x2="66.7%" y2="100%"><stop offset="20%" stop-color="#623078" stop-opacity="1"></stop><stop offset="80%" stop-color="#9a2881" stop-opacity="1"></stop></linearGradient></defs><defs><linearGradient id="grad2_4" x1="0%" y1="0%" x2="66.7%" y2="100%"><stop offset="20%" stop-color="#623078" stop-opacity="1"></stop><stop offset="80%" stop-color="#312c62" stop-opacity="1"></stop></linearGradient></defs><defs><linearGradient id="grad2_5" x1="0%" y1="0%" x2="66.7%" y2="100%"><stop offset="20%" stop-color="#0a2142" stop-opacity="1"></stop><stop offset="80%" stop-color="#312c62" stop-opacity="1"></stop></linearGradient></defs><defs><linearGradient id="grad2_6" x1="0%" y1="0%" x2="66.7%" y2="100%"><stop offset="20%" stop-color="#0a2142" stop-opacity="1"></stop><stop offset="80%" stop-color="#001220" stop-opacity="1"></stop></linearGradient></defs><g transform="translate(900, 0)"><path d="M0 297.5C-52.6 290 -105.1 282.5 -148.7 257.6C-192.3 232.7 -227 190.3 -250.3 144.5C-273.6 98.7 -285.5 49.3 -297.5 0L0 0Z" fill="#031a31"></path><path d="M0 255C-45.1 248.6 -90.1 242.2 -127.5 220.8C-164.9 199.5 -194.6 163.1 -214.5 123.9C-234.5 84.6 -244.7 42.3 -255 0L0 0Z" fill="#1c2853"></path><path d="M0 212.5C-37.5 207.1 -75.1 201.8 -106.2 184C-137.4 166.2 -162.1 136 -178.8 103.2C-195.4 70.5 -203.9 35.2 -212.5 0L0 0Z" fill="#482f6e"></path><path d="M0 170C-30 165.7 -60.1 161.4 -85 147.2C-109.9 133 -129.7 108.8 -143 82.6C-156.3 56.4 -163.2 28.2 -170 0L0 0Z" fill="#7e2d7f"></path><path d="M0 127.5C-22.5 124.3 -45.1 121.1 -63.7 110.4C-82.4 99.7 -97.3 81.6 -107.3 61.9C-117.2 42.3 -122.4 21.1 -127.5 0L0 0Z" fill="#b51f80"></path><path d="M0 85C-15 82.9 -30 80.7 -42.5 73.6C-55 66.5 -64.9 54.4 -71.5 41.3C-78.2 28.2 -81.6 14.1 -85 0L0 0Z" fill="#e90172"></path><path d="M0 42.5C-7.5 41.4 -15 40.4 -21.2 36.8C-27.5 33.2 -32.4 27.2 -35.8 20.6C-39.1 14.1 -40.8 7 -42.5 0L0 0Z" fill="#ff0066"></path></g><g transform="translate(0, 600)"><path d="M0 -297.5C56.4 -292.2 112.7 -286.9 148.7 -257.6C184.7 -228.3 200.3 -174.9 221.7 -128C243.1 -81.1 270.3 -40.5 297.5 0L0 0Z" fill="#031a31"></path><path d="M0 -255C48.3 -250.4 96.6 -245.9 127.5 -220.8C158.3 -195.7 171.7 -149.9 190 -109.7C208.4 -69.5 231.7 -34.7 255 0L0 0Z" fill="#1c2853"></path><path d="M0 -212.5C40.3 -208.7 80.5 -204.9 106.2 -184C131.9 -163.1 143.1 -125 158.4 -91.4C173.6 -57.9 193.1 -28.9 212.5 0L0 0Z" fill="#482f6e"></path><path d="M0 -170C32.2 -167 64.4 -164 85 -147.2C105.6 -130.5 114.5 -100 126.7 -73.1C138.9 -46.3 154.4 -23.2 170 0L0 0Z" fill="#7e2d7f"></path><path d="M0 -127.5C24.2 -125.2 48.3 -123 63.7 -110.4C79.2 -97.8 85.8 -75 95 -54.9C104.2 -34.7 115.8 -17.4 127.5 0L0 0Z" fill="#b51f80"></path><path d="M0 -85C16.1 -83.5 32.2 -82 42.5 -73.6C52.8 -65.2 57.2 -50 63.3 -36.6C69.5 -23.2 77.2 -11.6 85 0L0 0Z" fill="#e90172"></path><path d="M0 -42.5C8.1 -41.7 16.1 -41 21.2 -36.8C26.4 -32.6 28.6 -25 31.7 -18.3C34.7 -11.6 38.6 -5.8 42.5 0L0 0Z" fill="#ff0066"></path></g></svg>