<svg id="visual" viewBox="0 0 900 600" width="900" height="600" xmlns="http://www.w3.org/2000/svg" xmlns:xlink="http://www.w3.org/1999/xlink" version="1.1"><rect x="0" y="0" width="900" height="600" fill="#002233"></rect><path d="M0 414L30 422.5C60 431 120 448 180 457.7C240 467.3 300 469.7 360 462.5C420 455.3 480 438.7 540 432.8C600 427 660 432 720 437.8C780 443.7 840 450.3 870 453.7L900 457L900 601L870 601C840 601 780 601 720 601C660 601 600 601 540 601C480 601 420 601 360 601C300 601 240 601 180 601C120 601 60 601 30 601L0 601Z" fill="#ff0066" stroke-linecap="round" stroke-linejoin="miter"></path></svg>